#!OML:ASF F:\VICON\USERDATA\INSTALL\rory3\rory3.ASF
:FULLY-SPECIFIED
:DEGREES
431
root 0.906484 17.8562 0.852984 3.82533 17.7874 -4.30815
lowerback 9.22411 2.30629 1.5866
upperback -0.0202501 3.09856 -2.82839
thorax -4.95215 1.46156 -4.25947
lowerneck -26.7608 -13.4565 -13.1815
upperneck 2.32122 -14.6016 11.0042
head 6.54293 -6.31151 3.60691
rclavicle -4.01545e-014 -1.59028e-015
rhumerus 61.3584 -30.8104 -45.6045
rradius 48.4746
rwrist 26.6728
rhand -59.5522 -13.756
rfingers 7.12502
rthumb -31.7255 -41.0167
lclavicle -4.01545e-014 -1.59028e-015
lhumerus -36.2453 4.12558 67.4274
lradius 44.867
lwrist -4.88067
lhand -15.457 23.7253
lfingers 7.12502
lthumb 10.724 53.4316
rfemur -9.90822 -7.6256 19.2438
rtibia 25.0227
rfoot -20.1713 -14.1125
rtoes 1.62964
lfemur -15.5554 -5.15642 -7.38787
ltibia 25.6863
lfoot -13.0153 -1.66886
ltoes -23.9381
432
root 0.923412 17.8567 0.8534 3.90822 17.9686 -4.44348
lowerback 9.06336 2.3603 1.5909
upperback -0.0588257 3.16376 -2.96752
thorax -4.88891 1.49345 -4.40864
lowerneck -26.8164 -13.4714 -13.2932
upperneck 2.62459 -14.6089 11.0397
head 6.66306 -6.30904 3.62422
rclavicle -4.07509e-014 2.38542e-014
rhumerus 60.646 -29.9846 -43.6492
rradius 49.0665
rwrist 27.5854
rhand -59.3996 -14.406
rfingers 7.12502
rthumb -31.5801 -41.6952
lclavicle -4.07509e-014 2.38542e-014
lhumerus -36.0762 4.30974 67.1487
lradius 44.9077
lwrist -4.73049
lhand -15.1256 23.4437
lfingers 7.12502
lthumb 11.0436 53.1331
rfemur -9.89736 -7.58043 19.3547
rtibia 24.8201
rfoot -20.1593 -14.3329
rtoes 1.31476
lfemur -15.7569 -5.08031 -7.29592
ltibia 25.7463
lfoot -13.1155 -1.86152
ltoes -24.0024
433
root 0.939495 17.8564 0.853601 3.95124 18.1776 -4.5787
lowerback 9.05181 2.38592 1.59828
upperback -0.192544 3.19076 -3.09554
thorax -5.01282 1.50085 -4.55594
lowerneck -26.5461 -13.4632 -13.5437
upperneck 2.78091 -14.5982 11.2219
head 6.7123 -6.30171 3.72563
rclavicle -3.47873e-014 -1.43125e-014
rhumerus 59.6387 -28.951 -41.3707
rradius 49.7999
rwrist 28.3811
rhand -59.2826 -14.8095
rfingers 7.12502
rthumb -31.4686 -42.1206
lclavicle -3.47873e-014 -1.43125e-014
lhumerus -36.1908 4.32231 66.8717
lradius 45.0405
lwrist -4.65441
lhand -15.0421 23.1681
lfingers 7.12502
lthumb 11.1241 52.8532
rfemur -9.82194 -7.53042 19.4642
rtibia 24.6008
rfoot -20.1152 -14.5423
rtoes 1.3464
lfemur -15.9356 -5.0224 -7.19819
ltibia 25.8115
lfoot -13.1645 -2.09192
ltoes -23.8485
434
root 0.957419 17.8584 0.85294 3.97827 18.3924 -4.66253
lowerback 9.03165 2.41416 1.63777
upperback -0.208796 3.22346 -3.28643
thorax -5.00275 1.51426 -4.78318
lowerneck -26.6049 -13.5096 -13.5605
upperneck 2.96265 -14.6624 11.2267
head 6.78959 -6.32808 3.71229
rclavicle -3.77691e-015 -6.36111e-015
rhumerus 58.6519 -28.0434 -39.0398
rradius 50.6811
rwrist 28.9553
rhand -59.1827 -14.1836
rfingers 7.12502
rthumb -31.3735 -41.5132
lclavicle -3.77691e-015 -6.36111e-015
lhumerus -35.9279 4.32572 66.6305
lradius 45.0457
lwrist -4.55272
lhand -15.119 23.0484
lfingers 7.12502
lthumb 11.0499 52.7375
rfemur -9.70816 -7.42253 19.5033
rtibia 24.3426
rfoot -20.0769 -14.7821
rtoes 1.56664
lfemur -16.0809 -5.14073 -7.14222
ltibia 25.9071
lfoot -13.2239 -2.23242
ltoes -23.5956
435
root 0.976032 17.8621 0.849172 3.99861 18.5407 -4.84669
lowerback 9.0343 2.46084 1.77348
upperback -0.255838 3.29065 -3.47452
thorax -5.0291 1.54099 -5.06933
lowerneck -26.7711 -13.5854 -13.492
upperneck 3.31403 -14.787 11.1815
head 6.93449 -6.38096 3.65246
rclavicle -1.04561e-013 2.54444e-014
rhumerus 57.5201 -27.062 -36.5279
rradius 51.6067
rwrist 29.6578
rhand -59.105 -13.4369
rfingers 7.12502
rthumb -31.2994 -40.7809
lclavicle -1.04561e-013 2.54444e-014
lhumerus -35.6141 4.47761 66.3353
lradius 44.9486
lwrist -4.70411
lhand -14.9395 22.9016
lfingers 7.12502
lthumb 11.2231 52.5814
rfemur -9.64028 -7.32263 19.6411
rtibia 24.0729
rfoot -20.107 -14.9785
rtoes 2.07477
lfemur -16.2568 -5.20009 -6.98579
ltibia 26.0202
lfoot -13.2703 -2.33186
ltoes -23.2895
436
root 0.99228 17.8659 0.8469 4.00344 18.6317 -5.21975
lowerback 8.98868 2.52185 1.98166
upperback -0.369938 3.38766 -3.57396
thorax -5.09605 1.5792 -5.30682
lowerneck -26.7038 -13.6682 -13.5963
upperneck 3.63462 -14.9212 11.2881
head 7.06574 -6.43769 3.67254
rclavicle -5.76476e-015 1.59028e-014
rhumerus 56.2327 -25.961 -33.7879
rradius 52.6344
rwrist 30.5072
rhand -59.1494 -13.311
rfingers 7.12502
rthumb -31.3417 -40.6468
lclavicle -5.76476e-015 1.59028e-014
lhumerus -35.6108 4.45773 66.0541
lradius 45.008
lwrist -4.71679
lhand -14.8308 23.0469
lfingers 7.12502
lthumb 11.3279 52.7209
rfemur -9.63939 -7.1848 20.007
rtibia 23.8332
rfoot -20.1871 -15.1935
rtoes 2.18404
lfemur -16.4632 -5.11155 -6.62331
ltibia 26.1264
lfoot -13.3281 -2.47533
ltoes -23.2455
437
root 1.00682 17.8671 0.847394 3.98857 18.7705 -5.44
lowerback 8.97938 2.57427 2.02521
upperback -0.481138 3.45225 -3.74599
thorax -5.18824 1.60398 -5.52661
lowerneck -26.471 -13.6872 -13.5664
upperneck 3.72391 -15.0171 11.3827
head 7.08277 -6.48331 3.68709
rclavicle -2.74323e-014 -4.77083e-015
rhumerus 54.7978 -24.7867 -31.0027
rradius 53.7167
rwrist 31.2859
rhand -59.3657 -12.4834
rfingers 7.12502
rthumb -31.5478 -39.779
lclavicle -2.74323e-014 -4.77083e-015
lhumerus -35.695 4.34119 65.6477
lradius 45.1128
lwrist -4.52519
lhand -14.5974 23.1913
lfingers 7.12502
lthumb 11.5531 52.8529
rfemur -9.5459 -7.04533 20.2111
rtibia 23.5966
rfoot -20.2747 -15.4309
rtoes 2.06593
lfemur -16.627 -4.98996 -6.4316
ltibia 26.2497
lfoot -13.3984 -2.70576
ltoes -23.2675
438
root 1.0262 17.8664 0.846436 4.09723 18.9399 -5.51514
lowerback 8.85803 2.60455 2.03554
upperback -0.544203 3.48075 -3.99724
thorax -5.16735 1.61494 -5.798
lowerneck -26.3603 -13.693 -13.5256
upperneck 3.69049 -15.0741 11.528
head 7.07568 -6.50157 3.72242
rclavicle -6.91771e-014 2.70347e-014
rhumerus 53.513 -23.5513 -28.4255
rradius 54.7083
rwrist 32.2869
rhand -59.705 -10.7983
rfingers 7.12502
rthumb -31.871 -38.0301
lclavicle -6.91771e-014 2.70347e-014
lhumerus -35.6086 4.43011 65.2259
lradius 45.1572
lwrist -4.35991
lhand -14.5731 23.0762
lfingers 7.12502
lthumb 11.5765 52.7364
rfemur -9.5199 -7.09905 20.2371
rtibia 23.3557
rfoot -20.2436 -15.4826
rtoes 2.28055
lfemur -16.8891 -4.96116 -6.40912
ltibia 26.3833
lfoot -13.4614 -2.85574
ltoes -23.1909
439
root 1.04681 17.8706 0.843865 4.20188 19.0546 -5.64537
lowerback 8.6646 2.65309 2.08052
upperback -0.535826 3.5415 -4.19415
thorax -5.02785 1.64632 -6.02677
lowerneck -26.3744 -13.7407 -13.483
upperneck 3.74432 -15.1609 11.5671
head 7.10681 -6.53723 3.71155
rclavicle 6.79844e-014 -6.36111e-015
rhumerus 52.4151 -22.3244 -25.8931
rradius 55.6859
rwrist 33.7382
rhand -60.0227 -10.7227
rfingers 7.12502
rthumb -32.1734 -37.8937
lclavicle 6.79844e-014 -6.36111e-015
lhumerus -35.341 4.65389 64.9387
lradius 45.0786
lwrist -4.2662
lhand -14.8087 22.7517
lfingers 7.12502
lthumb 11.3492 52.4246
rfemur -9.52295 -7.11558 20.319
rtibia 23.1045
rfoot -20.2111 -15.6108
rtoes 2.34018
lfemur -17.1393 -4.94727 -6.33451
ltibia 26.511
lfoot -13.5345 -2.93795
ltoes -23.1222
